<?xml version="1.0" standalone="no"?>
<!DOCTYPE svg PUBLIC "-//W3C//DTD SVG 20010904//EN"
 "http://www.w3.org/TR/2001/REC-SVG-20010904/DTD/svg10.dtd">
<svg version="1.0" xmlns="http://www.w3.org/2000/svg"
 width="2048.000000pt" height="2048.000000pt" viewBox="0 0 2048.000000 2048.000000"
 preserveAspectRatio="xMidYMid meet">
<metadata>
Created by potrace 1.14, written by Peter Selinger 2001-2017
</metadata>
<g transform="translate(0.000000,2048.000000) scale(0.100000,-0.100000)"
fill="#000000" stroke="none">
<path d="M10069 17063 c-1 -5 -1 -11 0 -15 0 -5 -4 -8 -10 -8 -5 0 -7 -4 -4
-10 3 -5 1 -10 -5 -10 -6 0 -8 -4 -5 -10 3 -5 1 -10 -6 -10 -8 0 -7 -5 2 -17
8 -9 9 -14 3 -10 -7 4 -15 0 -18 -9 -4 -10 -2 -13 7 -9 6 4 5 1 -4 -7 -9 -7
-14 -19 -12 -25 3 -7 0 -13 -6 -13 -5 0 -8 -9 -6 -20 2 -11 -1 -22 -6 -25 -5
-4 -7 -11 -4 -16 4 -5 2 -9 -2 -9 -5 0 -9 -8 -9 -17 -1 -10 -4 -31 -8 -48 -4
-16 -8 -41 -9 -55 -1 -14 -5 -27 -8 -30 -8 -6 -21 -81 -22 -122 -1 -16 -4 -28
-8 -28 -3 0 -5 -11 -4 -25 2 -14 -1 -25 -7 -25 -6 0 -5 -6 2 -15 7 -8 8 -15 3
-15 -11 0 -15 -49 -17 -225 -1 -65 3 -113 9 -117 6 -5 5 -8 -4 -8 -11 0 -11
-3 0 -17 10 -11 10 -14 2 -9 -7 4 -13 2 -13 -3 0 -6 4 -11 9 -11 5 0 11 -9 14
-20 3 -12 1 -18 -5 -14 -5 3 -3 -7 6 -24 12 -23 13 -32 3 -35 -9 -4 -9 -6 1
-6 7 -1 10 -5 7 -11 -3 -5 -1 -10 4 -10 6 0 11 -9 11 -20 0 -10 10 -29 23 -41
12 -12 15 -18 7 -14 -9 5 -6 -2 6 -16 22 -25 43 -60 29 -46 -5 4 -19 0 -33 -9
-13 -9 -21 -11 -17 -4 7 11 -31 -6 -45 -20 -3 -3 -16 -7 -29 -8 -13 -2 -31
-10 -39 -18 -8 -8 -19 -13 -26 -11 -6 2 -16 -1 -23 -7 -33 -29 -41 -34 -47
-29 -3 3 -8 -2 -12 -11 -3 -9 -9 -14 -13 -12 -3 2 -12 -2 -19 -10 -7 -8 -11
-14 -8 -14 2 0 -9 -14 -25 -31 -16 -17 -27 -35 -24 -39 3 -4 -2 -11 -11 -14
-9 -3 -14 -13 -11 -20 3 -8 1 -16 -4 -18 -6 -2 -12 -19 -15 -38 -4 -19 -9 -37
-13 -40 -9 -7 -8 -26 2 -36 4 -4 0 -15 -9 -25 -10 -11 -12 -19 -5 -24 8 -4 8
-12 1 -26 -6 -10 -8 -19 -5 -19 3 0 1 -9 -5 -20 -8 -15 -8 -20 2 -20 10 0 10
-3 -1 -9 -8 -5 -11 -16 -8 -25 4 -9 2 -16 -3 -16 -5 0 -7 -7 -4 -15 4 -8 0
-23 -7 -32 -8 -9 -9 -14 -4 -11 6 4 11 -2 11 -13 0 -10 -3 -19 -6 -19 -4 0
-10 -66 -14 -160 -1 -19 -5 -41 -9 -47 -5 -8 -4 -13 3 -13 6 0 8 -5 4 -12 -4
-6 -7 -38 -6 -70 0 -42 -3 -56 -11 -51 -7 4 -6 0 2 -10 11 -14 11 -17 0 -17
-11 0 -11 -2 1 -10 8 -5 11 -10 5 -10 -6 0 -9 -26 -8 -60 1 -40 -2 -60 -10
-60 -8 0 -8 -3 -2 -8 12 -9 15 -102 3 -102 -5 0 -4 -10 3 -21 9 -17 8 -23 -2
-30 -12 -7 -12 -9 0 -9 11 0 11 -3 0 -17 -12 -15 -12 -16 1 -8 13 8 13 7 1 -8
-9 -12 -10 -17 -2 -17 8 0 9 -5 2 -18 -5 -10 -6 -24 -1 -32 5 -8 4 -22 -1 -32
-7 -13 -6 -18 2 -18 8 0 8 -4 -1 -15 -10 -12 -10 -15 0 -15 10 0 10 -3 0 -15
-9 -10 -9 -15 -1 -15 6 0 11 -5 11 -11 0 -5 -6 -7 -12 -3 -10 6 -10 4 0 -8 9
-12 10 -18 2 -23 -8 -5 -8 -11 1 -21 9 -11 9 -14 0 -14 -9 0 -9 -5 0 -21 9
-17 8 -20 -2 -14 -8 6 -10 4 -4 -6 5 -7 10 -33 10 -56 1 -24 4 -46 7 -49 10
-10 -4 -44 -18 -44 -8 0 -14 -5 -14 -11 0 -5 -4 -7 -10 -4 -5 3 -20 -3 -32
-15 -21 -20 -23 -20 -35 -4 -12 16 -17 38 -14 57 0 4 -3 7 -7 7 -5 0 -9 7 -10
15 -1 8 -3 22 -4 30 -1 8 -5 15 -10 15 -4 0 -8 8 -8 18 0 10 -6 24 -12 31 -11
11 -10 12 2 6 11 -6 10 -3 -3 12 -9 11 -14 23 -10 26 3 4 1 7 -5 7 -7 0 -12
14 -12 30 0 17 -5 30 -11 30 -5 0 -7 5 -4 10 3 6 2 10 -3 10 -5 0 -9 10 -8 23
1 14 -4 21 -13 19 -12 -3 -12 0 -1 12 9 12 9 16 1 16 -7 0 -9 5 -6 10 3 6 1
10 -4 10 -6 0 -11 9 -11 20 0 11 -5 20 -11 20 -5 0 -8 4 -5 9 8 12 -4 42 -13
37 -4 -3 -8 9 -9 26 -1 17 -11 43 -22 58 -11 16 -20 35 -20 43 0 9 -4 18 -10
22 -5 3 -6 13 -3 22 5 12 3 14 -7 8 -10 -6 -12 -4 -7 8 3 10 2 17 -3 17 -6 0
-10 9 -10 21 0 11 -4 17 -10 14 -5 -3 -7 0 -4 8 3 8 -2 20 -11 27 -8 7 -15 25
-15 41 0 16 -4 29 -9 29 -5 0 -15 17 -21 38 -7 20 -20 46 -29 56 -13 16 -13
18 -1 11 11 -6 10 -3 -2 12 -10 11 -18 30 -18 42 0 14 -4 20 -12 15 -8 -5 -9
-2 -5 9 3 10 2 17 -4 17 -6 0 -8 4 -5 9 4 5 3 11 -1 13 -5 1 -24 33 -43 70
-19 38 -38 68 -42 68 -4 0 -5 9 -3 20 2 11 0 20 -5 20 -9 0 -25 40 -22 53 1 5
-1 6 -6 3 -4 -2 -14 -1 -22 5 -13 7 -13 9 0 9 12 1 11 3 -2 11 -10 5 -18 19
-18 30 0 11 -4 17 -10 14 -5 -3 -10 -2 -10 3 0 5 -18 29 -40 52 -22 23 -40 40
-40 36 0 -3 -12 7 -27 23 -16 15 -34 26 -42 23 -8 -3 -11 0 -7 7 4 6 3 11 -2
11 -5 0 -26 11 -46 25 -21 14 -34 20 -30 13 6 -10 4 -10 -9 0 -9 8 -22 10 -28
6 -8 -4 -9 -3 -5 4 5 8 -2 12 -18 13 -34 2 -39 3 -53 12 -6 4 -14 3 -18 -3 -4
-6 -13 -7 -23 -2 -22 11 -113 9 -131 -2 -9 -6 -12 -5 -8 1 3 5 0 10 -8 10 -8
0 -11 -5 -8 -10 3 -5 0 -7 -8 -5 -8 3 -22 1 -33 -4 -13 -7 -16 -7 -12 1 5 8 0
8 -19 1 -15 -6 -30 -8 -35 -5 -5 3 -11 1 -15 -5 -4 -6 -11 -8 -16 -5 -5 4 -9
1 -9 -5 0 -6 -4 -8 -10 -5 -5 3 -10 0 -10 -7 0 -11 -2 -10 -9 0 -7 11 -9 10
-15 -3 -3 -9 -10 -14 -15 -11 -5 3 -33 -18 -62 -47 -29 -28 -47 -43 -39 -32
14 18 14 19 -2 6 -10 -7 -16 -17 -13 -21 3 -4 -2 -13 -10 -20 -8 -7 -12 -16
-9 -21 3 -5 1 -9 -4 -9 -5 0 -17 -12 -27 -26 -11 -17 -12 -23 -4 -18 8 4 4 -5
-9 -20 -12 -16 -19 -33 -15 -39 3 -6 1 -7 -5 -3 -7 4 -13 2 -13 -3 -4 -34 -19
-71 -29 -71 -5 0 -7 -9 -5 -20 2 -11 -1 -20 -7 -20 -6 0 -9 -3 -5 -6 3 -4 0
-22 -8 -41 -8 -19 -12 -40 -8 -46 4 -6 1 -7 -7 -2 -10 6 -12 4 -7 -8 3 -10 3
-17 -2 -17 -9 0 -21 -30 -25 -63 -2 -11 -7 -22 -13 -25 -6 -4 -9 -15 -7 -24 1
-10 -1 -18 -6 -18 -4 0 -11 -7 -14 -16 -4 -10 -2 -13 7 -8 7 5 6 1 -3 -10 -8
-10 -15 -26 -17 -35 -1 -10 -11 -37 -22 -61 -11 -24 -17 -48 -15 -52 3 -4 1
-8 -5 -8 -6 0 -7 -7 -4 -17 5 -12 3 -14 -7 -8 -8 5 -11 4 -7 -2 7 -11 -16 -96
-25 -88 -3 3 -6 -6 -7 -20 -3 -49 -4 -55 -14 -55 -6 0 -7 -3 -4 -7 4 -3 0 -17
-8 -30 -12 -17 -12 -23 -3 -23 8 0 6 -5 -5 -11 -11 -7 -16 -18 -13 -35 3 -13
0 -24 -5 -24 -6 0 -9 -8 -7 -17 2 -10 -3 -24 -12 -31 -13 -11 -13 -12 0 -6 13
7 13 5 2 -9 -8 -9 -11 -21 -7 -27 3 -5 1 -10 -5 -10 -6 0 -8 -4 -5 -10 3 -5 0
-10 -7 -10 -10 0 -9 -3 2 -10 12 -8 12 -10 -3 -16 -12 -4 -14 -10 -8 -18 6 -7
4 -18 -5 -30 -7 -10 -11 -23 -8 -27 3 -5 1 -9 -4 -9 -5 0 -8 -12 -6 -26 1 -14
-1 -23 -4 -19 -4 4 -7 10 -7 13 0 4 -4 13 -9 20 -4 7 -3 19 5 28 10 12 9 13
-3 9 -13 -5 -16 4 -19 68 0 9 -5 17 -11 17 -5 0 -8 7 -4 15 3 8 2 15 -2 15 -4
0 -8 10 -8 23 -1 12 -5 33 -9 47 -4 14 -7 33 -7 42 1 10 -4 20 -9 24 -6 4 -6
11 2 20 10 12 9 13 -6 8 -13 -5 -16 -4 -11 5 4 6 2 19 -6 28 -11 14 -11 16 1
8 11 -6 12 -5 5 6 -8 13 -12 25 -18 59 -1 8 -8 28 -14 43 -7 16 -10 33 -6 38
3 5 0 9 -7 9 -7 0 -9 3 -6 7 4 3 2 12 -4 20 -6 7 -8 13 -4 13 4 0 2 7 -5 15
-6 8 -9 19 -6 24 4 5 2 12 -4 16 -5 3 -10 15 -10 26 0 11 -4 18 -9 15 -5 -4
-7 3 -4 14 3 11 1 20 -5 20 -5 0 -13 7 -16 16 -3 8 -2 12 4 9 6 -3 7 1 4 9 -3
9 -10 16 -15 16 -5 0 -9 7 -9 15 0 9 -8 30 -17 48 -9 18 -16 35 -15 39 1 3 -5
12 -13 18 -8 7 -15 19 -15 26 0 8 -4 14 -10 14 -5 0 -10 7 -10 15 0 8 -5 15
-11 15 -5 0 -8 4 -4 9 3 6 -3 14 -12 20 -10 6 -14 11 -9 11 5 0 -5 14 -23 30
-17 17 -31 35 -31 41 0 6 -7 8 -16 5 -8 -3 -12 -2 -9 3 3 5 0 13 -6 16 -6 4 5
18 28 33 45 30 68 52 56 52 -4 0 0 5 10 11 9 6 15 14 12 20 -4 5 -2 9 3 9 11
0 37 88 34 113 -2 9 2 17 9 17 9 0 9 3 0 14 -9 10 -9 16 -1 21 8 5 8 11 -1 21
-9 11 -9 14 1 14 9 0 9 4 3 13 -6 6 -11 34 -12 61 -1 27 -6 55 -12 63 -9 10
-8 13 1 13 9 0 9 4 2 13 -6 7 -12 24 -14 37 -2 14 -7 31 -12 39 -7 10 -5 12 3
6 10 -5 10 -2 2 14 -6 12 -16 30 -22 42 -8 16 -8 19 1 14 7 -4 5 5 -4 23 -8
16 -13 32 -10 35 3 3 0 15 -6 27 -10 18 -10 21 2 14 11 -6 11 -5 -1 9 -11 14
-11 17 0 17 9 0 10 3 4 8 -6 4 -11 52 -12 109 -1 56 -6 110 -11 120 -5 10 -8
26 -7 36 2 9 0 17 -4 17 -4 0 -13 12 -19 26 -7 14 -17 22 -22 19 -6 -4 -7 -11
-4 -17 5 -7 1 -9 -9 -5 -10 3 -17 2 -17 -3 0 -5 -18 -28 -40 -51 -22 -23 -37
-46 -34 -51 3 -4 0 -7 -7 -6 -7 2 -18 -8 -26 -22 -7 -14 -18 -24 -24 -22 -7 2
-9 -5 -6 -18 3 -13 0 -20 -8 -20 -8 0 -17 -9 -20 -20 -4 -11 -10 -18 -15 -15
-4 3 -11 -2 -14 -11 -3 -8 -2 -13 3 -10 5 4 4 -5 -2 -18 -7 -13 -15 -22 -18
-20 -11 6 -31 -24 -24 -36 3 -5 1 -10 -5 -10 -6 0 -8 -4 -5 -10 3 -5 1 -10 -4
-10 -6 0 -11 -6 -11 -14 0 -8 -3 -16 -8 -18 -10 -4 -78 -140 -75 -150 2 -4 -2
-8 -8 -8 -6 0 -9 -7 -5 -15 3 -10 -1 -15 -12 -15 -15 0 -15 -2 -2 -10 9 -6 10
-10 3 -10 -6 0 -10 -9 -8 -20 2 -11 0 -18 -6 -15 -5 4 -9 -5 -9 -19 0 -14 -4
-27 -10 -31 -5 -3 -6 -13 -3 -22 4 -10 2 -14 -4 -10 -6 4 -9 -4 -7 -21 1 -14
-3 -30 -9 -34 -9 -6 -9 -8 1 -8 8 0 10 -5 5 -12 -10 -18 -12 -70 -1 -90 4 -10
4 -19 -1 -23 -6 -3 -2 -23 9 -47 10 -23 16 -46 14 -50 -3 -4 0 -8 5 -8 6 0 11
-7 11 -15 0 -8 -3 -15 -7 -14 -18 3 -52 -14 -47 -22 3 -5 0 -9 -6 -9 -6 0 -20
-9 -32 -20 -12 -11 -19 -20 -15 -20 3 0 -5 -12 -18 -26 -14 -15 -25 -33 -25
-40 0 -8 -4 -14 -9 -14 -8 0 -25 -56 -22 -72 0 -5 -3 -8 -7 -8 -11 0 -11 -4
-15 -112 -2 -57 1 -88 8 -88 5 0 3 -5 -5 -10 -12 -7 -12 -10 -1 -10 7 0 11 -6
8 -14 -3 -7 0 -19 6 -26 9 -10 9 -11 -3 -5 -12 7 -13 6 -4 -6 6 -8 10 -31 9
-51 -1 -22 2 -35 8 -31 6 4 8 -4 5 -20 -3 -15 0 -28 6 -31 7 -3 6 -8 -4 -15
-9 -7 -10 -11 -3 -11 6 0 10 -9 8 -20 -2 -11 2 -20 8 -20 7 0 6 -4 -3 -10 -10
-7 -11 -12 -4 -17 9 -7 14 -39 17 -110 0 -7 4 -13 8 -13 5 0 6 -13 4 -30 -2
-18 1 -30 8 -30 7 0 6 -4 -3 -10 -13 -9 -13 -10 0 -10 11 0 12 -2 3 -8 -10 -7
-10 -12 1 -27 12 -17 12 -24 -1 -48 -8 -16 -10 -26 -4 -23 6 4 11 2 11 -3 0
-6 -4 -11 -9 -11 -5 0 -12 -7 -15 -16 -4 -10 -2 -13 7 -9 6 4 -6 -9 -27 -29
-22 -19 -44 -33 -48 -30 -5 4 -19 -2 -30 -13 -14 -12 -19 -13 -13 -3 5 9 -1 7
-15 -5 -13 -11 -20 -14 -15 -6 6 10 4 12 -6 5 -8 -4 -18 -9 -24 -10 -50 -9
-66 -14 -76 -20 -7 -4 -9 -3 -6 3 3 5 0 10 -8 10 -8 0 -12 -3 -10 -7 2 -3 -27
-6 -65 -6 -75 0 -81 4 -85 61 -2 17 -6 50 -10 75 -4 25 -7 57 -8 73 0 15 -5
27 -11 27 -6 0 -5 4 3 9 8 5 9 11 3 15 -6 3 -9 18 -6 31 2 14 1 25 -4 25 -4 0
-8 10 -9 23 -2 88 -3 98 -15 91 -10 -5 -10 -4 -1 6 7 7 9 20 5 29 -5 9 -8 33
-7 54 0 20 -4 37 -9 37 -5 0 -6 3 -3 7 4 3 1 13 -6 21 -10 13 -9 14 2 8 10 -7
10 -4 -1 15 -8 13 -14 34 -13 47 1 12 -2 22 -7 22 -5 0 -6 5 -3 10 3 6 2 10
-4 10 -6 0 -8 7 -5 15 4 8 2 15 -4 15 -9 0 -24 39 -22 56 1 3 -8 14 -19 23
-11 10 -18 21 -14 25 4 3 -2 15 -13 26 -31 31 -44 49 -44 59 0 5 -9 13 -20 16
-11 3 -20 10 -20 15 0 5 -9 12 -20 15 -11 4 -18 11 -15 16 3 5 -1 6 -9 3 -9
-3 -16 -2 -16 3 0 13 -50 37 -77 36 -13 0 -23 3 -23 7 0 4 -10 8 -22 8 -13 0
-52 0 -88 1 -70 2 -88 0 -107 -12 -7 -5 -18 -5 -25 -1 -7 4 -8 3 -4 -4 6 -10
-4 -14 -30 -11 -3 0 -14 -9 -23 -20 -10 -12 -22 -21 -27 -21 -12 0 -84 -99
-84 -116 0 -8 -5 -14 -11 -14 -5 0 -8 -4 -4 -9 3 -5 1 -12 -5 -16 -5 -3 -10
-15 -10 -26 0 -10 -4 -19 -9 -19 -4 0 -7 -11 -6 -25 2 -14 -1 -25 -7 -25 -6 0
-8 -6 -5 -14 3 -8 1 -17 -6 -20 -9 -3 -8 -5 1 -5 10 -1 10 -6 2 -21 -8 -15 -8
-20 2 -20 9 0 9 -3 2 -8 -13 -8 -14 -322 -1 -322 4 0 5 -5 1 -12 -9 -14 -13
-78 -5 -78 3 0 6 -29 7 -64 0 -43 -3 -63 -10 -59 -6 4 -6 0 1 -8 7 -9 14 -48
15 -87 2 -40 8 -72 13 -72 6 0 3 -5 -5 -10 -13 -9 -13 -11 0 -20 12 -8 12 -10
1 -10 -9 0 -10 -4 -4 -12 6 -7 11 -30 12 -50 4 -93 6 -108 14 -108 5 0 4 -7
-3 -15 -7 -8 -8 -15 -3 -15 9 0 15 -34 14 -85 0 -10 3 -24 8 -30 4 -5 7 -31 7
-57 -1 -25 3 -44 7 -41 5 3 8 -3 6 -13 -1 -11 2 -37 6 -59 5 -22 8 -48 7 -57
0 -10 2 -18 6 -18 4 0 8 -19 10 -42 1 -23 8 -46 15 -50 9 -6 8 -8 -3 -8 -9 0
-11 -3 -5 -8 6 -4 12 -18 14 -32 2 -14 4 -29 5 -35 1 -5 6 -16 10 -24 7 -11 6
-12 -5 -6 -12 7 -12 6 -1 -7 7 -9 14 -30 15 -47 1 -17 4 -31 7 -31 3 0 7 -8 8
-17 2 -22 10 -58 12 -58 2 0 10 -34 14 -55 1 -8 8 -26 15 -39 8 -14 9 -21 2
-17 -6 4 -11 2 -11 -3 0 -6 6 -11 13 -11 7 0 13 -8 14 -17 3 -39 10 -69 21
-89 6 -12 8 -24 5 -28 -3 -3 0 -6 7 -6 7 0 11 -3 7 -6 -3 -4 1 -23 9 -43 8
-20 15 -37 15 -38 -4 -16 1 -23 11 -17 8 5 9 0 6 -14 -4 -12 -2 -22 4 -22 5 0
6 -4 3 -10 -3 -5 -2 -10 3 -10 24 0 4 -36 -35 -59 -24 -14 -46 -34 -49 -44 -3
-9 -10 -15 -15 -11 -5 3 -26 -12 -47 -33 -21 -21 -41 -39 -45 -41 -21 -7 -123
-105 -119 -114 1 -5 -3 -8 -9 -8 -5 0 -33 -22 -61 -50 -28 -28 -55 -47 -62
-43 -6 4 -4 -2 4 -12 8 -11 10 -16 3 -11 -8 4 -20 -5 -33 -26 -11 -18 -20 -29
-20 -25 0 8 -24 -16 -62 -62 -10 -12 -18 -26 -18 -31 0 -6 -7 -10 -15 -10 -8
0 -15 -7 -15 -15 0 -8 -4 -15 -10 -15 -5 0 -10 -7 -10 -15 0 -8 -7 -15 -15
-15 -8 0 -15 -5 -15 -11 0 -15 -71 -104 -81 -101 -5 1 -8 -1 -8 -5 3 -18 -2
-30 -26 -57 -13 -16 -22 -32 -20 -36 3 -4 -2 -10 -10 -14 -8 -3 -15 -12 -15
-20 0 -10 -9 -14 -27 -12 -16 1 -45 -1 -65 -5 -21 -3 -35 -2 -32 2 3 5 0 9 -5
9 -6 0 -11 -4 -11 -9 0 -11 -61 -4 -74 9 -7 7 -6 10 2 10 15 0 12 31 -3 42 -6
5 -6 8 1 8 11 0 12 133 0 160 -3 8 -8 29 -10 45 -2 17 -7 38 -11 47 -4 9 -3
23 1 29 5 9 2 10 -12 5 -15 -5 -16 -4 -7 5 12 12 6 39 -11 51 -7 5 -7 8 2 8 6
0 12 5 12 11 0 5 -5 7 -11 3 -8 -5 -10 1 -7 19 3 15 1 28 -3 29 -5 2 -9 26
-10 55 -2 35 -6 50 -13 46 -6 -4 -6 0 1 8 9 11 9 19 2 26 -8 8 -8 13 0 17 6 4
11 12 11 17 0 6 -4 8 -8 5 -5 -3 -9 1 -9 9 0 8 4 12 9 9 13 -8 6 29 -7 38 -6
5 -5 8 3 8 7 0 10 4 7 10 -3 5 -8 26 -11 47 -2 20 -9 40 -15 44 -6 3 -11 9
-11 12 0 18 -11 47 -19 47 -4 0 -33 -25 -64 -55 -30 -30 -53 -55 -50 -55 3 0
-3 -10 -15 -22 -55 -62 -69 -81 -64 -89 3 -5 -2 -9 -11 -9 -9 0 -13 -5 -10
-10 3 -6 -1 -13 -9 -16 -9 -3 -16 -12 -16 -20 0 -8 -5 -14 -10 -14 -6 0 -9 -3
-8 -7 1 -5 -11 -28 -27 -53 -26 -41 -95 -168 -97 -180 -1 -3 -8 -21 -16 -40
-9 -19 -16 -39 -16 -43 -1 -4 -8 -12 -16 -17 -9 -6 -10 -10 -3 -10 9 0 8 -9
-2 -34 -17 -41 -25 -78 -29 -132 -1 -22 -6 -45 -9 -51 -4 -7 -3 -14 3 -18 5
-3 10 -16 10 -28 0 -39 3 -57 11 -57 7 0 22 -39 20 -53 -1 -5 3 -6 8 -3 5 4
12 2 16 -4 8 -13 -30 -54 -43 -46 -6 3 -13 -1 -16 -10 -3 -8 -10 -13 -15 -10
-5 4 -11 3 -13 -2 -7 -17 -61 -51 -71 -45 -6 3 -7 1 -3 -5 4 -7 -3 -17 -18
-23 -14 -7 -23 -15 -21 -20 3 -4 -4 -10 -14 -14 -11 -3 -23 -15 -26 -26 -4
-10 -11 -17 -16 -14 -5 4 -9 -1 -9 -10 0 -9 -5 -13 -10 -10 -5 3 -10 1 -10 -5
0 -7 -10 -25 -22 -40 -22 -26 -61 -89 -62 -100 -1 -3 -6 -12 -11 -20 -5 -8
-11 -21 -12 -27 -7 -31 -12 -48 -13 -48 -6 0 -11 -50 -12 -105 0 -76 4 -120
12 -120 3 0 6 -8 7 -17 2 -27 8 -46 17 -62 7 -11 6 -12 -5 -6 -12 7 -12 6 0
-9 14 -16 17 -28 25 -82 1 -11 6 -27 11 -35 5 -7 11 -23 12 -33 2 -11 9 -26
16 -35 10 -12 9 -13 -1 -7 -10 6 -11 4 -4 -10 6 -11 15 -39 22 -64 7 -25 16
-53 22 -64 7 -14 6 -16 -4 -10 -7 4 -5 -2 5 -13 9 -11 14 -23 11 -26 -4 -4 -1
-13 5 -21 7 -8 10 -20 7 -25 -4 -5 -1 -13 5 -16 5 -4 8 -13 5 -21 -3 -7 -1
-16 4 -19 6 -4 10 -17 10 -31 0 -14 4 -22 10 -19 5 3 7 0 4 -9 -3 -8 -2 -21 2
-28 5 -7 7 -24 5 -37 -2 -16 1 -21 10 -15 9 5 11 2 6 -9 -3 -9 -2 -19 3 -22 5
-3 7 -12 3 -21 -3 -8 1 -22 9 -32 8 -9 13 -27 12 -39 0 -13 3 -23 8 -23 5 0 6
-4 3 -10 -3 -5 -1 -10 5 -10 6 0 8 -5 5 -10 -4 -6 -2 -17 4 -24 7 -8 11 -18
10 -22 -1 -5 0 -11 1 -14 1 -3 4 -18 6 -35 3 -16 9 -32 15 -33 5 -2 7 -8 3
-13 -3 -5 -2 -15 3 -21 4 -7 9 -24 11 -37 2 -14 8 -33 13 -43 5 -10 7 -23 4
-28 -3 -5 -1 -11 5 -15 6 -4 8 -11 5 -16 -4 -5 -2 -9 2 -9 8 0 13 -23 16 -67
0 -7 4 -13 9 -13 5 0 6 -4 3 -10 -3 -5 -2 -10 3 -10 5 0 8 -11 7 -25 -2 -14 1
-27 6 -31 5 -3 7 -10 4 -15 -4 -5 -1 -9 6 -9 7 0 9 -3 6 -7 -4 -3 -1 -13 6
-21 10 -13 9 -14 -2 -7 -11 6 -12 5 -5 -6 4 -8 9 -20 11 -28 1 -8 5 -17 10
-20 4 -3 8 -15 7 -26 0 -11 4 -29 10 -40 6 -11 9 -24 8 -29 -2 -4 1 -13 6 -20
5 -6 8 -19 7 -28 -2 -10 1 -18 6 -18 6 0 7 -5 4 -10 -3 -5 -2 -10 3 -10 5 0 8
-11 7 -25 -2 -14 1 -25 6 -25 6 0 7 -4 4 -10 -3 -5 -2 -10 3 -10 5 0 8 -13 7
-30 -1 -16 2 -30 7 -30 4 0 8 -9 8 -19 0 -11 4 -22 8 -25 4 -2 9 -19 10 -37 2
-18 6 -36 10 -39 4 -3 9 -16 11 -30 1 -14 8 -28 14 -32 7 -4 12 -13 13 -20 2
-25 16 -58 25 -58 5 0 9 -5 9 -11 0 -7 16 -27 35 -45 18 -19 32 -34 31 -34 -2
0 12 -16 31 -35 19 -19 37 -35 39 -35 2 0 15 -10 30 -22 14 -13 29 -23 32 -24
40 -5 39 7 39 -473 0 -252 4 -464 8 -471 5 -8 4 -11 -2 -7 -26 16 -31 -72 -6
-110 12 -19 13 -23 2 -23 -11 0 -11 -2 1 -10 11 -7 11 -10 2 -10 -10 0 -10 -5
-2 -20 9 -18 7 -23 -10 -22 -3 0 -6 -20 -7 -45 -1 -26 -7 -50 -15 -54 -11 -7
-11 -9 1 -9 9 0 10 -4 3 -12 -14 -18 -12 -268 2 -268 6 0 4 -5 -4 -10 -13 -9
-13 -10 0 -10 13 0 13 -1 0 -10 -10 -6 -11 -10 -2 -10 6 0 12 -11 12 -24 0
-14 4 -27 10 -31 6 -4 6 -15 0 -31 -6 -15 -6 -23 -1 -19 5 3 12 1 16 -5 3 -5
2 -10 -3 -10 -6 0 -8 -9 -5 -20 3 -11 9 -20 13 -20 10 0 6 -62 -5 -80 -6 -9
-4 -11 5 -5 9 5 10 2 6 -11 -11 -36 -13 -84 -3 -84 5 0 4 -6 -2 -14 -9 -10 -9
-16 -1 -21 8 -5 8 -11 1 -19 -7 -9 -7 -16 1 -24 8 -8 8 -16 -3 -28 -8 -10 -9
-15 -3 -11 7 4 11 -7 11 -31 1 -40 11 -157 14 -157 2 0 9 -44 10 -72 1 -14 6
-20 13 -16 6 4 5 -1 -3 -10 -7 -9 -9 -17 -4 -17 5 0 10 -8 11 -17 3 -30 7 -48
13 -58 4 -5 5 -18 4 -27 -2 -10 1 -18 6 -18 4 0 6 -7 3 -15 -4 -8 -2 -15 3
-15 8 0 12 -15 15 -57 1 -7 6 -13 11 -13 6 0 7 -3 4 -7 -4 -3 -2 -12 4 -20 6
-7 9 -13 6 -13 -3 0 1 -17 10 -38 8 -20 20 -48 26 -62 6 -14 10 -28 9 -33 -1
-4 3 -7 9 -7 5 0 8 -4 5 -8 -2 -4 10 -36 29 -70 18 -34 28 -59 21 -56 -6 3 -2
-2 8 -10 11 -9 16 -16 10 -16 -5 0 -1 -7 9 -14 10 -8 18 -17 18 -20 -3 -24 1
-36 9 -31 6 3 10 -2 10 -12 0 -11 7 -28 16 -39 8 -10 12 -12 8 -4 -4 8 -3 12
1 7 5 -4 10 -18 12 -30 2 -12 8 -23 13 -25 5 -2 6 -10 3 -18 -3 -8 -1 -14 4
-12 13 4 66 -59 59 -71 -3 -5 1 -11 9 -15 8 -3 15 -11 15 -18 0 -8 9 -20 20
-28 11 -8 20 -20 20 -26 0 -6 14 -25 30 -42 17 -18 30 -35 30 -40 0 -4 9 -13
20 -20 11 -7 20 -17 20 -23 0 -7 12 -22 27 -35 16 -13 25 -24 21 -24 -4 0 0
-9 9 -20 10 -11 23 -20 30 -20 7 0 13 -4 13 -10 0 -5 15 -25 34 -44 19 -19 32
-37 29 -40 -4 -3 -1 -6 6 -6 15 0 76 -61 73 -73 -1 -4 5 -7 13 -7 9 0 20 -10
25 -23 5 -12 9 -18 9 -14 1 5 20 -11 42 -35 23 -23 38 -36 34 -28 -4 8 7 -1
26 -21 19 -19 42 -38 52 -42 9 -3 17 -11 17 -16 0 -5 9 -13 20 -16 11 -4 18
-11 15 -16 -4 -5 -1 -9 4 -9 10 0 36 -19 66 -48 8 -6 18 -12 24 -12 6 0 15 -8
20 -18 12 -22 66 -54 76 -44 5 4 5 1 1 -6 -5 -9 -1 -15 13 -19 12 -3 21 -10
21 -15 0 -5 4 -7 9 -3 5 3 12 -4 16 -15 4 -11 11 -18 16 -14 6 3 18 -3 28 -15
10 -11 21 -18 25 -14 3 3 6 0 6 -7 0 -7 3 -11 6 -7 4 3 15 -4 26 -16 11 -12
17 -15 13 -7 -4 10 -2 9 8 -2 8 -10 20 -18 26 -18 7 0 9 -5 5 -12 -4 -6 -3 -8
4 -4 6 3 17 0 25 -8 8 -8 17 -12 21 -9 3 4 6 2 6 -4 0 -5 18 -18 40 -28 22
-10 40 -22 40 -27 0 -4 7 -8 15 -8 8 0 15 -4 15 -8 0 -4 16 -14 35 -21 21 -7
33 -17 29 -23 -5 -7 -1 -9 9 -5 8 3 21 -1 27 -9 7 -8 19 -14 26 -14 8 0 14 -5
14 -11 0 -5 4 -8 9 -4 5 3 16 -1 24 -9 8 -8 17 -12 21 -9 3 4 6 2 6 -3 0 -5
20 -18 45 -29 25 -11 45 -23 45 -28 0 -4 5 -5 10 -2 6 3 10 1 10 -4 0 -6 3
-11 8 -10 15 2 52 -14 52 -22 0 -5 6 -9 12 -9 16 0 156 -69 163 -80 3 -5 12
-7 20 -4 8 3 26 -4 41 -15 15 -12 30 -21 34 -21 4 0 25 -8 46 -17 22 -9 45
-16 52 -14 6 1 12 -2 12 -6 0 -5 9 -14 21 -21 17 -11 20 -11 13 0 -6 11 -5 11
9 0 9 -8 20 -11 26 -8 5 3 12 -1 15 -10 3 -8 11 -12 17 -8 6 3 14 3 18 -2 7
-10 69 -35 89 -37 6 0 12 -4 12 -9 0 -5 4 -7 9 -3 5 3 12 1 16 -5 4 -6 11 -8
16 -5 5 4 9 1 9 -6 0 -8 5 -7 17 2 9 8 14 9 10 3 -3 -6 5 -16 19 -23 20 -9 24
-9 18 1 -4 7 1 6 12 -4 21 -18 89 -39 98 -30 3 3 6 0 6 -6 0 -7 8 -12 18 -12
10 0 27 -7 38 -15 12 -8 24 -12 27 -9 3 3 14 1 25 -5 21 -11 66 -23 99 -25 11
0 19 -4 17 -7 -4 -6 65 -28 116 -36 13 -2 30 -9 37 -15 7 -5 17 -7 22 -4 5 4
13 1 16 -5 4 -5 13 -8 20 -5 7 2 16 2 20 -2 4 -4 12 -7 18 -7 7 -1 11 -7 9
-15 -3 -12 -1 -12 9 -3 8 8 18 9 31 2 10 -5 23 -7 28 -4 5 3 11 1 15 -4 3 -6
13 -7 22 -4 11 4 14 3 9 -5 -4 -7 -1 -12 9 -12 10 0 13 5 9 13 -6 9 -5 9 7 0
19 -15 167 -53 216 -56 12 -1 20 -5 17 -9 -3 -4 5 -7 18 -7 13 0 37 -2 53 -6
17 -4 37 -8 45 -10 8 -2 15 -4 15 -5 0 -2 16 -3 35 -4 19 -1 42 -6 50 -11 8
-5 28 -8 44 -6 15 1 26 -1 23 -7 -4 -5 11 -8 33 -8 22 1 40 -2 40 -5 0 -4 11
-6 25 -4 14 1 25 -1 25 -5 0 -5 11 -7 25 -5 14 1 25 -1 25 -6 0 -5 6 -6 14 -3
8 3 24 1 35 -6 16 -8 21 -8 21 2 0 8 3 9 8 3 8 -11 17 -14 64 -17 18 -1 38 -4
43 -7 6 -3 19 -6 30 -7 11 -1 47 -5 80 -9 33 -4 83 -8 112 -9 28 -1 49 -4 47
-8 -3 -4 4 -7 13 -6 10 0 28 -3 41 -5 13 -4 22 -1 22 6 0 9 2 9 8 0 4 -6 20
-10 35 -9 15 2 27 0 27 -3 0 -4 14 -6 30 -5 17 1 30 -3 30 -8 0 -6 7 -5 16 3
10 8 18 9 22 3 4 -6 23 -10 42 -9 19 1 52 -2 73 -6 22 -4 37 -2 37 4 0 5 7 4
15 -3 8 -7 21 -10 29 -7 8 3 17 3 20 0 10 -11 66 -11 60 -1 -4 6 0 7 12 1 11
-5 30 -9 44 -8 14 0 28 -3 31 -8 3 -5 13 -1 23 8 9 9 16 12 16 6 0 -6 10 -11
23 -11 132 -1 213 -6 219 -15 5 -6 8 -6 8 2 0 12 30 10 50 -2 6 -3 10 -1 10 4
0 6 5 11 11 11 5 0 7 -5 3 -12 -4 -7 -3 -8 5 -4 16 10 101 14 95 5 -5 -9 37
-6 53 4 5 3 13 3 17 0 11 -11 50 -9 58 2 5 7 8 7 8 0 0 -11 71 -12 88 -1 6 3
13 2 17 -4 4 -6 13 -5 26 3 16 10 21 9 29 -3 5 -8 10 -10 10 -5 0 6 38 10 98
10 56 0 100 4 104 10 5 6 8 5 8 -3 0 -8 5 -10 13 -5 16 10 40 10 48 0 3 -5 13
-1 23 8 9 9 16 13 16 8 0 -12 53 -12 61 0 4 5 13 6 20 2 16 -10 79 -14 74 -4
-3 4 10 7 28 7 40 0 182 10 182 12 0 1 19 3 42 4 23 1 45 5 49 9 12 12 26 8
18 -5 -6 -10 -4 -10 7 -2 8 6 23 10 34 8 10 -1 25 2 32 8 9 7 13 7 13 -2 0 -8
4 -9 13 -3 11 9 50 14 124 17 18 0 33 3 33 6 0 5 27 8 118 12 17 1 32 6 32 10
0 4 15 6 34 4 19 -1 33 2 30 6 -3 5 11 7 30 5 20 -2 36 -1 36 3 0 5 16 8 36 8
20 0 40 5 44 12 5 9 9 9 14 1 5 -8 13 -8 27 -1 10 6 19 8 19 4 0 -3 6 -2 13 3
6 5 28 9 49 8 20 0 34 3 32 7 -3 5 6 9 20 9 49 3 61 4 71 10 6 4 18 5 28 4 9
-2 17 1 17 7 0 6 11 8 25 6 14 -3 28 -1 31 4 3 5 12 7 20 4 8 -3 14 -2 14 3 0
5 11 7 25 6 14 -2 25 0 25 5 0 5 11 7 25 5 14 -1 25 1 25 6 0 4 9 6 20 4 11
-2 20 0 20 6 0 5 3 8 8 8 4 -1 20 -1 35 0 19 1 26 5 21 14 -5 9 -4 9 6 0 7 -7
19 -8 29 -4 33 16 84 30 92 25 5 -3 9 0 9 6 0 6 5 8 10 5 6 -4 16 -2 23 3 7 5
22 8 34 7 13 -1 21 1 17 4 -4 5 66 26 121 36 11 2 21 4 23 5 1 2 7 4 12 5 6 1
11 3 13 5 1 1 9 3 17 5 8 3 22 6 30 8 8 2 23 7 32 11 9 4 23 9 32 10 8 1 18 5
22 8 3 4 12 4 20 1 8 -3 14 -1 14 5 0 5 7 13 16 16 8 3 12 2 9 -4 -3 -6 1 -7
9 -4 9 3 13 10 10 15 -3 5 2 6 11 3 8 -4 22 -1 30 6 8 6 19 9 25 5 5 -3 10 -2
10 4 0 5 8 8 18 7 9 -2 20 1 23 7 4 5 17 11 30 12 39 4 40 5 33 16 -4 6 1 10
12 8 11 -1 32 3 47 9 16 7 35 12 43 12 8 0 14 5 14 12 0 6 3 8 7 5 3 -4 12 -2
20 4 7 6 13 8 13 4 0 -4 16 2 36 14 19 12 32 15 28 9 -4 -7 3 -4 16 7 13 11
20 13 15 6 -5 -9 3 -7 21 6 29 21 34 23 55 23 5 0 8 4 5 9 -3 4 6 7 19 5 14
-1 25 2 25 7 0 6 5 7 10 4 6 -3 10 -1 10 5 0 6 4 9 9 5 5 -3 12 -1 16 5 3 5
15 10 26 10 10 0 19 5 19 11 0 5 5 7 10 4 6 -3 10 -1 10 6 0 7 3 10 6 6 3 -3
27 6 54 19 26 13 55 24 63 24 8 0 17 6 20 14 3 8 19 17 36 21 17 4 31 11 31
16 0 6 4 8 9 4 5 -3 12 -1 16 5 4 6 10 8 15 5 5 -3 12 -1 15 5 4 6 28 20 53
32 26 12 56 28 66 37 16 13 18 14 12 1 -4 -8 -1 -7 8 4 8 10 19 15 24 12 6 -3
13 1 16 10 3 8 10 12 16 9 5 -3 10 -1 10 5 0 6 5 8 10 5 6 -3 13 1 16 9 3 9
10 13 15 10 5 -3 9 0 9 6 0 6 5 8 10 5 6 -3 10 -1 10 5 0 6 5 8 10 5 6 -3 10
-3 10 2 0 4 14 14 30 21 17 8 28 18 25 22 -3 5 3 7 14 5 11 -2 22 3 25 11 3 9
10 13 15 10 5 -3 12 1 15 10 3 8 10 12 16 9 5 -3 10 -1 10 5 0 6 5 8 10 5 6
-3 14 4 19 17 6 13 10 17 11 8 0 -12 4 -11 15 4 8 11 15 16 15 10 0 -5 7 0 15
10 8 11 15 16 15 12 0 -4 7 -1 15 6 34 31 45 38 45 31 0 -4 4 -3 8 2 4 6 34
28 67 50 94 63 144 102 138 109 -4 3 1 6 11 6 9 0 28 12 41 26 14 15 25 23 25
19 0 -4 8 2 19 13 10 12 23 22 30 22 6 0 11 7 11 15 0 8 4 14 9 13 5 -2 17 6
26 17 9 11 13 13 10 5 -4 -8 5 -1 20 15 15 17 31 29 36 27 5 -1 9 5 9 14 0 8
5 12 10 9 9 -6 14 8 11 28 -1 5 3 6 8 2 6 -3 30 14 53 37 24 24 46 42 51 40 4
-1 7 4 7 12 0 8 9 18 20 21 11 3 20 10 20 15 0 5 33 43 73 85 91 95 97 102 97
115 0 6 5 8 10 5 6 -3 10 0 10 7 0 8 9 20 20 28 11 8 20 19 20 25 0 6 9 16 21
23 12 7 19 16 16 19 -3 3 5 15 17 27 13 11 26 31 30 44 4 12 12 20 17 17 5 -4
9 3 9 14 0 11 9 26 20 34 11 8 17 17 13 20 -3 4 -1 7 6 7 7 0 10 4 7 8 -3 5 4
14 14 22 10 8 17 17 14 22 -3 4 0 8 6 8 6 0 8 5 5 10 -3 6 1 13 9 16 9 3 13
10 10 15 -3 5 0 9 7 9 7 0 9 3 6 7 -4 3 1 12 11 20 9 8 11 11 4 8 -11 -6 -11
-3 -1 13 7 12 17 19 21 16 4 -3 5 1 2 9 -3 8 2 20 10 27 9 7 13 16 10 21 -3 5
-1 9 4 9 9 0 25 37 23 53 -1 4 4 7 10 7 5 0 7 5 4 10 -3 6 -1 10 5 10 6 0 8 5
5 10 -3 6 -1 10 5 10 6 0 8 5 4 11 -3 6 -3 14 2 18 16 11 35 52 29 61 -4 6 -1
10 5 10 6 0 8 5 5 10 -3 6 -1 10 6 10 7 0 9 10 7 25 -3 14 -1 23 6 22 5 -1 11
8 12 20 1 13 7 30 15 40 12 15 12 16 -1 8 -13 -8 -13 -7 -1 9 13 16 17 28 23
74 1 6 5 12 10 12 5 0 7 4 4 9 -4 5 0 12 6 14 10 4 10 6 0 6 -7 1 -10 6 -7 12
12 19 35 130 29 140 -3 5 -1 9 4 9 5 0 8 10 8 22 -1 13 0 28 3 33 3 6 7 28 8
50 5 75 9 104 16 111 4 4 2 13 -4 21 -7 8 -7 13 -2 13 6 0 10 18 9 40 -1 22 0
40 3 40 4 0 7 16 7 35 1 23 -2 32 -10 28 -7 -5 -7 -2 1 8 8 10 10 57 7 159 -7
220 -8 219 13 242 10 12 12 18 6 14 -7 -4 -13 -2 -13 3 0 6 5 11 11 11 6 0 8
9 4 20 -3 11 -2 20 4 20 5 0 8 9 6 20 -2 11 -1 20 4 20 7 0 9 11 15 91 1 25 6
50 9 56 3 5 4 18 3 29 -2 10 1 27 5 36 6 10 5 19 -2 23 -6 4 -7 14 -4 24 12
29 14 50 5 56 -4 3 -6 15 -2 27 4 16 2 19 -9 13 -11 -7 -12 -6 -2 6 7 8 8 20
4 28 -5 7 -6 22 -4 32 3 10 1 19 -4 19 -5 0 -10 7 -11 15 -1 8 -3 22 -4 30 -1
8 -5 15 -9 15 -5 0 -6 7 -3 15 3 8 -1 22 -10 31 -9 8 -14 20 -11 25 4 5 1 9
-5 9 -6 0 -8 5 -5 10 3 6 1 10 -5 10 -6 0 -8 5 -5 10 3 6 2 10 -4 10 -6 0 -7
7 -4 17 5 12 3 14 -8 8 -12 -8 -12 -6 0 8 7 9 11 17 7 17 -4 0 0 12 8 28 12
24 12 31 -1 56 -8 15 -12 30 -9 33 3 4 0 13 -7 21 -10 13 -9 14 3 7 12 -6 13
-5 3 5 -9 10 -10 17 -2 27 9 9 8 13 0 13 -7 0 -9 5 -6 11 11 16 12 70 3 75 -5
3 -4 12 3 20 9 11 9 14 0 14 -8 0 -9 5 -1 19 7 14 7 22 0 26 -8 5 -7 11 1 21
8 10 8 14 0 14 -13 0 -10 22 4 32 6 5 6 8 -2 8 -8 0 -10 11 -7 33 7 41 7 47 0
76 -3 14 0 31 7 40 9 12 9 13 -1 7 -13 -8 -13 19 1 41 4 6 4 14 -1 17 -5 3 -8
91 -8 196 1 104 -3 190 -7 190 -5 0 -5 5 -1 11 8 14 7 165 -1 179 -3 6 -1 10
4 10 6 0 11 5 11 11 0 5 -3 8 -8 5 -9 -5 -7 58 3 73 3 6 2 11 -3 11 -10 0 -7
54 3 71 4 5 1 9 -6 9 -8 0 -9 10 -4 33 4 17 7 38 8 45 0 6 4 12 9 12 4 0 8 7
8 16 0 9 -5 13 -12 9 -7 -4 -2 3 12 15 14 12 20 19 13 16 -6 -4 -3 10 7 31 10
20 15 44 12 52 -3 8 -1 12 5 8 5 -3 10 0 10 8 0 8 -5 15 -11 15 -5 0 -1 7 10
15 10 8 15 15 11 15 -5 0 0 13 9 29 10 17 21 28 26 25 4 -3 8 2 8 10 0 9 5 16
11 16 6 0 9 7 6 14 -4 11 -1 13 10 9 11 -4 14 -2 9 5 -4 7 -2 12 3 12 6 0 11
7 11 16 0 8 4 13 9 9 5 -3 18 8 27 24 10 17 21 28 25 26 4 -3 10 7 13 20 4 14
11 23 16 20 6 -3 10 -2 10 2 0 5 13 23 29 41 17 17 28 32 25 32 -3 0 8 12 23
26 15 14 21 22 13 18 -8 -4 12 19 45 51 33 32 53 54 45 50 -8 -4 1 7 20 25 19
18 29 29 21 25 -9 -6 -12 -4 -7 3 4 7 14 12 22 12 8 0 12 5 9 10 -3 6 -1 10 5
10 6 0 15 11 22 25 6 13 15 22 19 19 5 -3 9 0 9 6 0 6 11 21 23 33 13 12 22
28 20 35 -3 8 1 10 14 5 10 -3 15 -3 11 1 -3 4 1 16 10 26 10 10 22 25 27 32
6 7 20 25 31 40 12 15 24 24 28 20 4 -3 4 0 1 9 -3 9 8 28 29 48 20 19 33 38
30 43 -3 4 0 8 6 8 6 0 15 11 22 25 6 13 15 22 20 19 5 -3 7 -2 6 3 -3 9 31
64 47 75 6 5 6 8 0 8 -7 0 -7 3 0 8 12 9 32 39 45 70 5 12 14 22 19 22 5 0 8
8 7 17 -2 10 4 24 11 32 8 8 12 22 10 33 -3 10 -2 16 3 13 4 -3 11 2 14 11 4
10 2 13 -7 8 -6 -4 -4 2 6 13 20 23 23 38 5 27 -10 -6 -10 -5 -1 7 7 9 15 26
17 40 3 13 5 24 6 24 12 0 14 273 3 288 -5 7 -8 22 -7 35 0 12 -3 22 -9 22 -6
0 -7 3 -4 7 4 3 1 13 -6 21 -10 13 -9 14 3 7 12 -7 13 -6 3 7 -7 8 -9 19 -5
23 4 5 1 5 -5 1 -8 -4 -13 -1 -13 9 0 17 -48 98 -61 103 -14 6 -10 39 6 52 8
7 12 16 9 21 -3 5 2 6 10 3 11 -4 14 0 11 15 -2 11 2 26 9 33 7 7 11 19 8 26
-2 6 1 12 7 12 5 0 8 12 5 26 -3 14 -1 23 5 20 5 -4 6 8 1 29 -5 24 -4 35 4
35 6 0 4 5 -4 10 -8 5 -11 10 -6 10 5 0 4 6 -3 13 -8 10 -7 17 1 25 9 9 9 12
1 12 -7 0 -10 9 -8 20 2 11 -1 22 -6 25 -5 4 -7 11 -4 16 4 5 1 9 -5 9 -8 0
-7 6 1 21 8 15 8 19 0 15 -6 -4 -11 -2 -11 3 0 17 0 17 -25 82 -14 34 -22 66
-18 72 3 6 1 7 -5 3 -7 -4 -13 -1 -14 6 -3 29 -4 34 -18 58 -12 23 -19 57 -21
118 -1 12 -6 22 -11 22 -6 0 -5 7 2 15 7 8 8 15 3 15 -5 0 -10 12 -10 28 -2
43 -13 85 -30 111 -8 13 -10 20 -3 16 13 -8 -6 30 -27 52 -13 15 -33 17 -33 5
0 -5 -11 -22 -24 -37 -14 -16 -23 -33 -20 -37 3 -5 1 -7 -6 -6 -6 2 -18 -10
-28 -27 -9 -16 -20 -32 -25 -33 -4 -2 -5 -8 -1 -13 3 -5 0 -9 -5 -9 -6 0 -11
-7 -11 -15 0 -8 -4 -15 -8 -15 -5 0 -17 -20 -28 -45 -10 -25 -22 -45 -27 -45
-4 0 -5 -4 -2 -10 3 -5 1 -10 -5 -10 -7 0 -10 -6 -7 -14 3 -8 -1 -17 -9 -20
-8 -3 -13 -9 -12 -13 0 -4 -5 -21 -12 -38 -7 -16 -13 -33 -12 -37 1 -5 -3 -8
-9 -8 -5 0 -8 -4 -4 -9 3 -5 1 -12 -5 -16 -5 -3 -10 -15 -10 -26 0 -10 -4 -19
-10 -19 -5 0 -7 -7 -4 -15 4 -8 1 -15 -5 -15 -6 0 -8 -7 -4 -17 5 -12 3 -14
-7 -8 -9 5 -11 4 -6 -3 4 -6 2 -20 -3 -30 -7 -13 -6 -23 2 -32 9 -10 9 -11 0
-6 -12 6 -18 -5 -14 -26 0 -5 -5 -8 -11 -8 -9 0 -8 -4 2 -10 11 -7 12 -10 2
-10 -8 0 -12 -6 -9 -12 2 -7 0 -26 -5 -43 -13 -41 -16 -85 -7 -91 4 -2 4 -18
-1 -34 -5 -17 -5 -32 0 -35 5 -3 7 -12 3 -20 -3 -8 0 -15 7 -15 7 0 10 -8 7
-20 -3 -11 -1 -20 5 -20 5 0 6 -4 3 -10 -3 -5 -1 -10 4 -10 6 0 11 -7 11 -15
0 -9 7 -18 15 -21 12 -5 12 -9 -2 -30 -9 -14 -22 -23 -30 -20 -8 3 -11 2 -8
-3 3 -5 -5 -17 -17 -25 -12 -9 -19 -16 -15 -16 4 0 -8 -16 -27 -35 -20 -20
-36 -38 -35 -40 0 -11 -18 -37 -27 -37 -5 0 -8 -4 -6 -9 1 -5 -2 -9 -7 -9 -5
0 -19 -16 -31 -35 -12 -19 -27 -34 -33 -32 -7 1 -11 -6 -9 -17 2 -12 -1 -16
-9 -11 -7 5 -10 3 -7 -5 2 -7 -10 -26 -27 -44 -44 -46 -86 -96 -80 -96 3 0 -3
-8 -12 -18 -10 -11 -21 -17 -25 -15 -4 2 -5 -4 -1 -13 4 -11 2 -15 -4 -11 -6
4 -16 -7 -23 -23 -7 -17 -15 -28 -18 -25 -12 11 -23 86 -22 138 0 21 -3 43 -7
50 -4 6 -8 39 -9 72 -1 33 -3 60 -4 60 -1 0 -3 14 -3 30 -1 17 -6 36 -10 43
-5 7 -4 12 3 12 6 0 8 5 4 11 -4 7 -8 80 -9 163 -1 97 -6 160 -14 174 -7 13
-10 30 -7 38 3 8 1 14 -4 14 -6 0 -9 6 -8 13 2 6 -3 11 -10 9 -8 -1 -11 2 -7
8 7 12 -25 90 -38 90 -4 0 -6 4 -3 9 3 5 -1 12 -10 15 -8 3 -12 10 -9 16 3 5
2 10 -3 10 -14 0 -52 36 -52 49 0 7 -4 10 -8 7 -5 -3 -18 3 -28 12 -10 10 -23
20 -29 21 -5 2 -16 5 -22 7 -7 2 -21 7 -30 10 -10 4 -30 7 -45 7 -16 0 -28 4
-28 10 0 5 -7 4 -15 -3 -11 -9 -15 -9 -15 -1 0 9 -5 9 -21 0 -15 -7 -19 -8
-15 0 8 13 -21 4 -43 -13 -12 -9 -13 -8 -7 3 6 9 0 8 -17 -4 -15 -9 -32 -13
-38 -9 -7 4 -9 3 -5 -4 3 -5 1 -12 -6 -14 -14 -5 -114 100 -110 114 1 5 -2 7
-8 3 -5 -3 -10 -2 -10 2 0 14 -68 82 -74 75 -3 -3 -6 0 -6 6 0 13 -58 72 -71
72 -5 0 -9 6 -9 14 0 13 -27 31 -42 28 -5 -1 -8 1 -9 5 0 5 -2 17 -4 27 -2 11
2 28 10 39 7 11 11 26 8 35 -4 8 -2 13 3 9 14 -8 14 176 0 186 -8 5 -6 10 4
17 8 5 10 10 4 10 -7 0 -15 7 -18 16 -4 9 -2 13 5 8 7 -4 6 3 -2 17 -11 22
-16 38 -21 77 -1 6 -4 12 -8 12 -4 0 -7 6 -7 13 -2 18 -27 81 -36 88 -4 3 -10
16 -12 29 -3 13 -11 28 -19 32 -9 5 -13 15 -10 23 4 8 1 15 -5 15 -6 0 -10 3
-9 8 3 10 -33 82 -41 82 -4 0 -7 10 -8 22 -1 11 -8 25 -15 29 -7 5 -9 9 -5 9
5 0 1 7 -7 16 -9 8 -16 24 -16 35 0 10 -5 19 -12 19 -6 0 -9 3 -5 6 3 4 0 19
-9 35 -8 16 -12 29 -10 29 3 0 -1 18 -9 39 -7 22 -16 54 -20 73 -4 18 -9 45
-12 61 -3 15 -9 27 -14 27 -5 0 -9 8 -9 18 0 23 -22 72 -33 72 -5 0 -6 4 -3 9
3 5 -1 14 -9 21 -8 7 -12 17 -8 24 3 6 3 8 -2 4 -4 -4 -15 3 -25 14 -16 20
-19 21 -34 6 -9 -9 -16 -20 -16 -24 0 -4 -8 -16 -17 -27 -13 -15 -14 -19 -3
-13 8 4 6 0 -4 -8 -11 -9 -16 -16 -12 -16 5 0 3 -6 -3 -13 -6 -8 -8 -17 -4
-20 3 -4 1 -7 -6 -7 -7 0 -10 -4 -6 -9 3 -5 1 -12 -5 -16 -5 -3 -10 -13 -10
-22 0 -9 -8 -25 -17 -36 -13 -15 -14 -18 -3 -12 13 8 13 6 2 -8 -8 -9 -10 -22
-6 -28 5 -8 3 -9 -6 -4 -10 6 -12 3 -8 -13 4 -12 2 -20 -2 -17 -5 3 -11 -13
-15 -35 -4 -22 -11 -40 -16 -40 -4 0 -6 -7 -3 -15 4 -8 2 -15 -3 -15 -5 0 -9
-8 -10 -17 0 -10 -4 -29 -8 -43 -3 -14 -7 -29 -8 -35 -2 -5 -6 -15 -10 -22 -7
-12 -17 -60 -19 -100 -1 -13 -6 -23 -11 -23 -4 0 -5 -5 -2 -10 4 -6 1 -18 -7
-27 -11 -14 -11 -16 2 -8 12 7 13 6 4 -6 -5 -8 -11 -30 -13 -49 -3 -33 -21
-69 -21 -41 0 7 -4 10 -9 7 -5 -4 -12 0 -14 6 -4 10 -6 10 -6 0 -1 -8 -12 -3
-28 13 -16 14 -34 23 -41 20 -7 -3 -11 -1 -8 4 3 4 -16 19 -42 32 -26 13 -50
28 -54 34 -4 6 -8 6 -8 1 0 -6 -7 -1 -16 10 -8 10 -12 13 -9 6 6 -11 3 -11
-16 0 -13 7 -29 19 -37 25 -7 7 -24 16 -38 19 -20 5 -22 9 -13 20 6 8 9 14 6
14 -4 0 9 16 29 35 19 19 32 40 29 45 -3 6 1 10 9 10 8 0 18 5 22 12 5 7 3 8
-7 2 -8 -4 3 9 24 30 20 22 37 46 37 54 0 9 3 12 7 9 6 -7 32 23 29 33 0 3 14
20 33 38 19 17 31 32 28 32 -4 0 9 16 29 35 19 19 29 35 22 35 -7 0 0 9 15 19
16 10 28 21 28 25 -3 19 0 27 8 22 9 -6 26 22 23 36 -1 5 1 7 6 5 4 -1 9 3 11
8 2 6 11 15 20 22 9 7 13 13 9 13 -4 0 6 13 22 29 17 15 30 33 30 40 0 6 5 11
10 11 6 0 10 5 10 11 0 12 26 40 32 34 2 -2 10 5 17 17 10 16 10 19 -1 12 -7
-4 4 9 25 29 20 19 37 38 37 41 0 3 20 32 45 65 25 32 45 64 45 70 0 6 5 11
12 11 6 0 8 3 5 7 -4 3 2 12 13 20 11 8 20 20 20 27 0 8 7 17 16 20 9 4 14 13
10 21 -3 8 -1 15 3 15 10 0 52 67 55 87 1 7 6 16 11 20 4 4 5 1 1 -7 -4 -8 -1
-6 8 4 8 10 13 22 11 26 -3 4 2 13 10 20 8 7 15 19 15 26 0 8 5 14 11 14 8 0
8 5 -1 15 -10 12 -9 16 3 21 9 3 14 14 12 25 -2 10 0 19 5 19 4 0 7 11 6 25
-2 15 1 22 7 18 6 -4 8 0 4 10 -3 9 -2 19 3 22 4 3 7 16 5 30 -1 14 3 25 9 25
6 0 4 5 -4 10 -13 9 -13 10 0 10 13 0 13 1 0 10 -12 8 -12 10 -1 10 11 0 11 3
0 17 -8 9 -9 14 -3 10 7 -4 12 2 12 18 -1 15 -5 22 -12 18 -8 -4 -8 -3 0 6 7
7 8 27 4 50 -4 21 -6 45 -4 54 1 9 -1 17 -5 17 -4 0 -8 6 -9 13 -2 35 -15 74
-30 91 -9 11 -11 16 -4 12 11 -7 11 -4 0 15 -7 13 -19 29 -25 37 -7 7 -13 17
-13 22 0 16 -90 101 -100 95 -6 -3 -10 -3 -10 2 0 9 -48 33 -67 33 -7 0 -13 5
-13 10 0 7 -6 7 -20 0 -14 -8 -20 -8 -20 0 0 8 -6 8 -20 0 -14 -7 -20 -7 -20
0 0 5 -5 10 -11 10 -5 0 -7 -5 -3 -12 4 -6 3 -8 -3 -5 -6 4 -13 16 -16 27 -5
20 -1 22 51 23 12 0 22 3 22 8 0 5 7 6 15 3 8 -4 15 -1 15 5 0 6 6 8 14 5 8
-3 17 0 21 5 3 6 11 9 16 5 6 -3 19 4 30 17 10 12 19 19 19 16 0 -4 9 2 20 13
11 11 20 25 20 30 0 6 4 10 8 10 4 0 15 16 24 35 8 19 12 32 7 29 -5 -3 -6 2
-3 10 3 9 10 16 15 16 5 0 9 5 9 11 0 5 -4 8 -9 4 -6 -3 -7 6 -2 22 9 32 7
166 -3 182 -4 6 -1 11 6 11 9 0 9 3 -2 10 -8 5 -11 10 -6 10 5 0 3 6 -3 14 -9
11 -9 15 1 19 10 4 10 8 2 14 -7 4 -13 24 -15 43 -2 19 -8 41 -13 49 -9 11 -8
13 2 7 12 -7 12 -4 2 14 -10 18 -9 24 1 31 9 6 10 9 2 9 -6 0 -11 9 -10 20 1
11 6 20 11 20 6 0 5 5 -2 12 -7 7 -8 17 -1 30 7 13 6 18 -3 18 -10 0 -10 2 0
9 8 4 14 12 14 16 0 4 -6 12 -14 16 -7 5 -8 9 -3 9 6 0 11 9 12 20 1 13 -2 18
-10 13 -8 -4 -8 -2 1 9 10 13 10 18 -1 30 -7 7 -12 19 -9 26 2 6 -3 18 -11 26
-13 13 -20 10 -62 -29 -26 -25 -52 -45 -57 -45 -6 0 -7 -8 -4 -17 4 -10 4 -14
0 -10 -7 7 -64 -51 -64 -66 0 -5 -4 -5 -10 -2 -5 3 -10 -1 -10 -9 0 -9 -5 -16
-12 -16 -6 0 -9 -3 -5 -6 3 -3 -2 -14 -11 -23 -10 -10 -24 -28 -32 -41 -8 -12
-21 -28 -27 -36 -7 -7 -13 -17 -13 -23 0 -5 -8 -15 -17 -20 -10 -6 -14 -11
-10 -11 5 0 -1 -13 -12 -29 -12 -16 -21 -33 -21 -39 0 -5 -7 -15 -15 -22 -8
-6 -14 -15 -13 -18 1 -4 -3 -17 -10 -28 -6 -12 -8 -24 -5 -28 3 -3 1 -6 -5 -6
-7 0 -12 -9 -12 -19 0 -11 -5 -23 -11 -26 -6 -4 -8 -13 -5 -21 3 -8 1 -14 -4
-14 -5 0 -7 -7 -4 -15 4 -8 2 -15 -2 -15 -5 0 -9 -31 -9 -70 0 -38 2 -70 5
-70 3 0 6 -10 7 -22 1 -11 8 -25 15 -29 7 -5 10 -9 6 -9 -5 0 0 -8 10 -18 9
-11 20 -17 25 -15 4 2 7 -3 7 -12 0 -9 5 -13 10 -10 6 3 10 1 10 -5 0 -6 4 -9
9 -5 5 3 17 -2 25 -11 9 -8 16 -12 16 -8 0 3 7 1 15 -6 8 -7 13 -16 10 -20 -3
-5 2 -15 10 -24 14 -13 11 -16 -24 -27 -22 -7 -38 -15 -36 -20 3 -4 -3 -6 -12
-5 -10 2 -27 -7 -38 -19 -12 -12 -27 -19 -34 -17 -8 3 -11 0 -7 -7 4 -6 0 -11
-9 -11 -9 0 -19 -9 -22 -20 -3 -10 -13 -22 -22 -25 -9 -3 -24 -17 -34 -32 -46
-73 -85 -121 -92 -115 -5 4 -5 -1 -2 -10 4 -12 1 -18 -9 -18 -8 0 -12 -5 -9
-10 3 -6 -1 -13 -9 -16 -9 -3 -16 -12 -16 -20 0 -8 -4 -14 -10 -14 -5 0 -10
-7 -10 -15 0 -8 -4 -15 -9 -15 -5 0 -24 -22 -42 -49 -17 -28 -38 -52 -46 -55
-8 -3 -11 -10 -8 -16 3 -5 -1 -10 -9 -10 -9 0 -16 -7 -16 -15 0 -8 -9 -24 -19
-34 -11 -11 -28 -32 -37 -46 -18 -27 -18 -27 -26 -5 -4 12 -6 26 -2 31 3 5 2
9 -3 9 -4 0 -9 18 -10 40 -2 23 -8 50 -14 62 -8 16 -8 19 1 13 9 -5 9 -3 2 11
-5 11 -7 25 -5 32 3 6 0 12 -5 12 -6 0 -8 9 -5 19 3 10 -1 29 -7 41 -10 18
-10 21 2 14 11 -6 11 -5 -1 9 -7 9 -10 17 -6 17 4 0 1 8 -6 17 -12 14 -12 16
0 8 10 -6 12 -4 6 5 -11 18 -15 49 -18 147 -1 44 -6 79 -11 76 -4 -3 -5 4 -2
15 4 11 0 36 -8 55 -8 20 -12 38 -9 41 7 6 -58 139 -69 144 -5 2 -8 10 -8 18
0 8 -7 14 -15 14 -8 0 -15 5 -15 10 0 14 -62 69 -78 70 -7 0 -11 4 -8 8 2 4
-5 9 -16 9 -12 1 -25 8 -29 15 -5 7 -9 10 -9 6 0 -3 -17 -2 -37 4 -48 14 -104
17 -97 6 3 -4 0 -8 -5 -8 -6 0 -11 4 -11 9 0 15 -95 -12 -138 -41 -24 -15 -47
-28 -52 -28 -5 0 -12 -5 -16 -12 -5 -7 -2 -9 7 -4 8 4 5 0 -6 -9 -11 -9 -19
-21 -18 -26 2 -5 0 -9 -5 -9 -10 0 -35 41 -28 47 3 3 -2 12 -10 20 -8 8 -12
19 -9 24 4 5 1 9 -4 9 -6 0 -11 9 -11 19 0 11 -5 23 -10 26 -6 4 -8 11 -5 16
4 5 1 9 -4 9 -6 0 -11 7 -11 15 0 8 -4 15 -10 15 -5 0 -10 7 -10 16 0 8 -6 21
-12 28 -7 8 -20 24 -28 36 -8 12 -20 28 -27 35 -7 7 -9 15 -6 19 4 3 2 6 -3 6
-6 0 -19 7 -30 16 -10 8 -12 12 -4 8 21 -9 -47 53 -71 66 -11 6 -16 16 -13 22
4 6 3 8 -3 5 -6 -4 -16 0 -23 8 -7 8 -19 15 -26 15 -8 0 -14 5 -14 10 0 6 -9
10 -19 10 -11 0 -23 5 -27 11 -6 10 -126 70 -139 69 -3 0 -18 6 -33 13 -15 8
-34 12 -42 9 -12 -4 -11 -2 2 11 9 9 21 18 28 19 15 4 60 46 60 56 0 4 9 14
19 22 11 7 18 17 15 22 -3 4 2 11 10 14 9 3 16 14 16 23 0 14 -2 14 -10 1 -7
-10 -10 -11 -10 -2 0 7 6 15 14 18 8 3 13 16 11 30 -1 13 2 24 8 24 5 0 7 10
4 22 -3 12 -2 30 4 40 7 12 6 18 -1 18 -7 0 -8 6 0 19 7 14 6 21 -3 24 -9 3
-9 7 2 20 10 13 10 17 1 17 -9 0 -11 11 -7 35 3 19 2 37 -4 40 -5 3 -9 16 -9
28 -1 50 -5 75 -13 70 -4 -2 -5 6 -3 19 1 13 -4 34 -13 48 -11 17 -12 22 -3
16 11 -7 12 -4 3 11 -5 11 -13 32 -16 46 -3 15 -8 39 -12 55 -3 15 -6 50 -7
77 -1 28 -5 53 -11 57 -7 5 -6 8 1 8 11 0 11 51 -1 69 -3 6 -2 11 3 11 5 0 9
7 9 15 0 8 -5 15 -11 15 -7 0 -6 3 1 8 10 6 9 14 -2 35 -8 15 -9 25 -4 21 8
-4 7 0 0 14 -6 11 -11 30 -11 42 0 12 -4 18 -10 15 -5 -3 -10 2 -10 13 0 10
-3 21 -6 25 -8 8 -54 -34 -48 -45 3 -5 2 -8 -3 -7 -20 3 -34 -2 -28 -11 3 -6
-1 -13 -9 -16 -9 -3 -16 -12 -16 -20 0 -8 -4 -14 -9 -14 -5 0 -19 -16 -32 -36
-12 -20 -31 -45 -43 -56 -11 -12 -14 -18 -6 -14 8 4 6 -1 -5 -11 -11 -10 -21
-25 -23 -33 -2 -8 -9 -20 -16 -25 -7 -6 -16 -20 -20 -33 -4 -12 -12 -22 -17
-22 -6 0 -7 -5 -4 -10 3 -6 0 -13 -9 -16 -8 -3 -17 -12 -20 -20 -4 -10 -2 -13
7 -8 6 4 3 -4 -9 -17 -18 -21 -37 -58 -34 -67 0 -1 -6 -10 -15 -18 -8 -9 -13
-20 -10 -25 4 -5 1 -9 -4 -9 -6 0 -10 -3 -9 -7 1 -5 -3 -18 -10 -29 -6 -12 -9
-24 -6 -26 2 -3 -2 -11 -11 -18 -8 -7 -15 -26 -15 -42 0 -19 -4 -27 -11 -22
-7 4 -9 0 -5 -14 4 -11 2 -23 -4 -27 -5 -3 -10 -17 -10 -31 0 -14 -4 -23 -9
-20 -4 3 -7 -6 -5 -19 1 -14 -2 -28 -7 -31 -6 -3 -5 -11 2 -20 7 -9 8 -14 1
-14 -6 0 -9 -9 -7 -20 2 -11 -1 -20 -6 -20 -6 0 -7 -6 -3 -12 5 -7 8 -35 9
-63 0 -27 4 -56 8 -62 5 -7 5 -18 1 -25 -4 -7 -3 -8 4 -4 7 4 12 1 12 -9 0 -9
7 -23 15 -32 8 -8 12 -19 9 -25 -4 -6 -3 -9 2 -6 5 3 15 0 22 -8 7 -8 11 -15
10 -15 -5 -2 -39 -8 -88 -15 -25 -3 -47 -10 -48 -16 -2 -5 -10 -4 -18 3 -9 7
-14 8 -14 1 0 -6 -13 -10 -29 -10 -15 1 -34 -3 -42 -8 -16 -9 -35 -15 -61 -17
-10 -1 -18 -5 -18 -9 0 -4 -11 -8 -24 -8 -14 0 -28 -5 -31 -10 -3 -6 -17 -8
-31 -6 -14 3 -22 1 -18 -5 3 -5 -10 -16 -28 -24 -18 -8 -30 -14 -27 -15 4 0
-12 -19 -35 -43 -22 -23 -45 -41 -50 -38 -5 2 -6 -1 -3 -6 4 -6 0 -16 -8 -23
-8 -7 -15 -16 -15 -20 0 -4 -7 -25 -17 -46 -9 -22 -17 -46 -19 -54 -12 -72
-32 -139 -48 -159 -9 -12 -8 -13 4 -6 9 5 8 0 -4 -13 -11 -12 -16 -25 -13 -29
4 -3 7 0 7 7 0 7 3 11 6 8 3 -4 1 -15 -5 -27 -6 -11 -12 -31 -13 -45 -1 -15
-6 -26 -11 -26 -5 0 -7 -6 -4 -14 3 -7 0 -19 -6 -26 -9 -10 -9 -11 2 -5 10 6
12 4 6 -5 -13 -21 -36 -129 -38 -177 -1 -26 -17 -12 -18 15 0 15 -3 36 -5 47
-3 11 -7 38 -10 60 -3 22 -8 42 -12 45 -4 3 -8 14 -9 25 0 11 -4 31 -8 45 -4
14 -7 31 -7 38 -1 6 -5 12 -10 12 -4 0 -7 3 -7 8 3 16 -14 72 -22 72 -5 0 -9
6 -9 13 0 18 -55 125 -76 149 -10 10 -14 18 -11 18 4 0 -3 11 -14 24 -12 13
-21 27 -20 30 1 4 -21 30 -49 59 -27 28 -50 55 -50 60 0 4 -5 7 -11 7 -17 0
-41 29 -33 41 5 8 3 9 -5 5 -7 -5 -21 0 -32 10 -10 9 -19 14 -19 11 0 -4 -9 2
-20 13 -11 11 -27 20 -35 20 -8 0 -15 5 -15 12 0 6 -3 8 -7 5 -3 -4 -15 1 -26
10 -15 13 -18 14 -12 3 6 -11 3 -10 -12 3 -11 9 -27 17 -36 17 -9 0 -17 4 -17
10 0 5 -7 7 -15 4 -8 -4 -15 -2 -15 3 0 5 -10 9 -22 10 -11 1 -25 8 -29 15 -7
10 -9 10 -9 -2 0 -12 -2 -13 -9 -1 -5 8 -19 12 -35 9 -14 -3 -26 -1 -26 4 0 5
-4 6 -10 3 -5 -3 -10 -2 -10 2 0 5 -17 8 -37 8 -21 -1 -48 2 -60 7 -14 4 -23
4 -23 -3 0 -6 -6 -6 -19 1 -16 8 -18 13 -8 34 7 13 16 22 21 19 5 -4 7 3 4 15
-4 12 -3 20 2 17 11 -7 17 14 16 53 -1 17 1 32 4 32 3 0 5 31 5 69 0 39 -4 67
-9 63 -5 -3 -7 2 -3 11 3 10 3 17 -2 17 -4 0 -8 6 -9 13 -3 36 -9 64 -17 77
-5 8 -10 20 -10 25 -1 6 -7 24 -14 40 -7 17 -15 39 -17 50 -2 11 -8 21 -14 23
-5 2 -10 12 -10 23 0 10 -4 19 -10 19 -6 0 -9 3 -8 8 4 11 -26 72 -35 72 -5 0
-6 4 -2 9 3 5 -2 16 -10 25 -9 8 -16 18 -15 21 1 21 -1 25 -12 19 -7 -4 -8 -3
-4 4 4 6 -3 29 -14 52 -11 22 -18 40 -14 40 4 0 0 8 -7 17 -11 13 -11 15 -1 9
11 -7 11 -4 1 15 -28 54 -29 59 -17 59 9 0 8 3 -2 10 -8 5 -15 17 -15 27 0 10
-4 24 -9 32 -5 7 -9 21 -10 30 -1 9 -14 42 -30 74 -19 39 -34 57 -47 57 -11 0
-20 -3 -20 -7z m500 -1907 c36 -19 39 -24 45 -69 2 -20 7 -41 11 -47 3 -5 2
-10 -2 -10 -5 0 -9 -10 -10 -22 0 -13 -4 -39 -8 -58 -3 -19 -7 -43 -8 -52 -1
-10 -5 -18 -10 -18 -5 0 -6 -8 -3 -17 4 -10 4 -14 0 -11 -4 4 -20 -11 -36 -33
-16 -22 -35 -42 -43 -46 -8 -3 -12 -10 -8 -16 3 -5 1 -7 -5 -3 -6 3 -17 0 -25
-8 -8 -8 -25 -17 -38 -19 -13 -2 -31 -6 -39 -10 -40 -15 -46 -6 -45 62 1 36
-3 72 -9 80 -8 11 -8 13 0 8 8 -4 11 32 10 128 -1 74 0 132 3 129 2 -2 11 5
18 16 8 11 18 18 23 15 5 -3 12 0 15 6 4 5 13 8 21 5 8 -3 14 -2 14 3 0 14 96
3 129 -13z m1746 -52 c6 -2 19 -4 30 -6 11 -2 31 -11 44 -20 13 -10 28 -15 32
-12 4 2 6 -5 4 -16 -2 -11 0 -20 4 -20 9 0 6 -54 -4 -69 -3 -6 -1 -11 6 -11 8
0 8 -4 2 -12 -6 -7 -9 -21 -8 -30 2 -9 -3 -19 -10 -22 -7 -2 -11 -16 -10 -30
2 -14 -3 -30 -11 -37 -8 -6 -14 -17 -14 -23 0 -6 -9 -18 -19 -26 -11 -7 -18
-17 -15 -21 2 -4 -9 -16 -25 -25 -17 -10 -27 -22 -24 -28 3 -6 3 -8 -2 -4 -4
4 -20 1 -36 -7 -15 -8 -37 -15 -49 -15 -11 0 -20 -4 -20 -8 0 -11 -54 -9 -62
2 -7 10 -3 65 6 73 3 3 1 15 -5 26 -9 15 -8 18 2 12 9 -6 11 -3 6 8 -4 10 -2
17 5 17 7 0 7 4 -1 14 -9 10 -9 16 -1 21 6 4 10 14 8 23 -1 10 1 23 6 31 6 10
5 12 -2 7 -8 -5 -10 -2 -6 8 3 9 11 16 18 16 7 0 8 3 1 8 -11 7 -14 62 -4 62
3 0 5 18 5 40 -1 36 4 45 27 41 4 0 7 6 7 14 0 8 6 12 14 9 8 -3 17 -1 20 4 3
5 18 7 32 4 20 -4 25 -2 19 8 -6 10 -4 11 6 4 8 -4 19 -9 24 -10z m-1061 -756
c-4 -13 -7 -32 -6 -43 1 -10 -4 -26 -11 -34 -9 -12 -9 -13 1 -7 15 9 15 1 2
-25 -8 -14 -7 -19 2 -19 9 0 9 -3 2 -8 -5 -4 -10 -26 -9 -49 0 -23 -3 -39 -6
-37 -4 2 -6 -12 -4 -31 2 -22 -1 -35 -8 -35 -7 0 -6 -4 3 -10 13 -9 13 -10 0
-10 -13 0 -13 -1 0 -11 9 -6 11 -12 5 -15 -6 -2 -9 -28 -7 -60 2 -41 -1 -54
-9 -48 -8 5 -9 3 -4 -7 13 -19 13 -49 2 -56 -5 -3 -3 -9 4 -14 11 -7 11 -9 1
-9 -10 0 -10 -5 -2 -20 6 -11 9 -20 8 -21 -22 -6 -38 -6 -38 -1 0 4 -17 8 -38
8 -115 5 -131 7 -125 18 4 6 0 5 -9 -2 -11 -8 -18 -9 -22 -3 -4 7 -15 7 -31 1
-16 -6 -27 -6 -31 1 -3 6 -22 9 -40 7 -19 -2 -34 -1 -34 2 0 3 -34 5 -75 5
-41 0 -75 2 -75 5 0 3 -21 5 -47 4 -27 0 -62 2 -79 6 -17 4 -38 3 -47 -1 -9
-6 -18 -6 -21 0 -3 4 -18 6 -32 3 -20 -4 -25 -2 -19 8 6 10 4 11 -6 4 -22 -14
-98 -11 -104 4 -3 8 0 10 7 6 8 -5 9 -2 5 9 -3 10 -2 17 3 17 5 0 6 7 3 17 -4
11 -3 14 5 9 8 -4 16 2 21 17 6 14 15 28 22 33 8 5 10 3 4 -7 -5 -9 -1 -8 11
3 13 11 24 14 34 8 8 -5 22 -4 33 2 15 8 18 7 12 -3 -5 -8 -4 -10 4 -5 7 5 40
10 74 12 76 4 122 11 166 24 19 5 37 7 40 5 2 -3 13 3 24 12 10 10 22 17 26
16 11 -5 46 9 65 26 12 10 16 11 11 2 -5 -9 1 -7 19 4 14 10 26 21 26 26 0 5
6 6 13 4 7 -3 27 9 46 25 18 17 40 29 48 26 8 -3 12 -2 9 2 -2 4 2 16 10 27 8
10 14 15 14 11 0 -4 7 -1 15 8 8 8 15 20 15 26 0 6 5 8 10 5 6 -3 10 -2 10 3
0 5 13 25 30 43 16 19 30 40 30 47 0 6 5 12 10 12 6 0 9 3 8 8 -3 7 22 41 30
42 2 0 0 -10 -4 -22z m-2824 -48 c8 -15 8 -18 -3 -14 -8 3 -14 11 -14 19 0 20
4 19 17 -5z m9 -29 c7 -5 14 -20 14 -35 0 -14 3 -26 8 -26 4 0 8 -8 8 -17 1
-38 5 -53 12 -53 4 0 10 -7 13 -16 4 -10 2 -13 -7 -8 -9 6 -9 5 0 -7 16 -19
24 -91 10 -82 -6 4 -8 0 -5 -9 10 -25 -29 -49 -82 -51 -26 -1 -46 1 -43 6 2 4
-1 7 -6 7 -6 0 -11 -5 -11 -11 0 -8 -5 -7 -15 1 -11 9 -12 15 -5 20 6 4 10 11
8 16 -1 5 4 20 11 33 9 17 10 21 1 16 -7 -4 -6 2 3 16 8 13 13 32 12 42 -2 9
1 17 6 17 6 0 8 4 4 9 -3 5 -1 12 4 15 5 4 8 14 6 24 -1 9 3 23 9 31 6 7 11
19 12 25 0 6 2 19 2 29 2 19 10 21 31 8z m4536 -111 c-1 -27 1 -50 4 -50 3 0
7 -24 8 -53 3 -95 9 -152 17 -166 6 -10 5 -12 -2 -7 -7 4 -12 2 -12 -3 0 -6 5
-11 10 -11 7 0 7 -6 0 -19 -6 -12 -6 -21 0 -23 5 -2 10 -27 11 -55 2 -30 7
-53 13 -53 8 0 8 -2 0 -8 -11 -7 -15 -62 -4 -62 4 0 7 -15 7 -32 1 -58 10
-146 17 -157 4 -6 2 -11 -5 -11 -8 0 -8 -4 -2 -12 5 -7 9 -26 8 -43 -3 -40 -3
-39 -20 -25 -8 7 -15 9 -15 5 0 -4 -6 -2 -13 4 -8 6 -17 8 -20 4 -4 -3 -7 -1
-7 6 0 6 -6 11 -12 9 -7 -1 -34 8 -60 20 -47 22 -62 46 -70 112 -2 14 -6 30
-9 35 -4 6 -5 18 -4 28 2 9 -1 17 -5 17 -5 0 -11 13 -15 30 -3 16 -16 41 -28
57 -12 15 -15 23 -7 18 13 -8 13 -6 1 8 -7 9 -17 14 -22 11 -5 -3 -9 2 -9 10
0 13 -4 14 -25 4 -13 -6 -22 -15 -19 -19 3 -5 -4 -19 -15 -31 -12 -12 -21 -28
-21 -35 0 -7 -3 -13 -7 -13 -5 0 -16 -20 -26 -44 -24 -58 -37 -69 -71 -56 -19
7 -26 6 -26 -3 0 -8 -4 -7 -10 3 -5 8 -10 11 -10 6 0 -5 -7 -3 -15 4 -12 10
-15 10 -15 -1 0 -12 -2 -12 -9 -1 -4 8 -17 12 -28 10 -11 -1 -27 3 -37 11 -15
12 -16 12 -9 -5 5 -15 4 -17 -8 -9 -8 6 -26 10 -41 9 -16 0 -28 2 -28 6 0 4
-11 8 -25 9 -46 3 -55 4 -55 10 0 3 -17 7 -38 9 -20 1 -38 7 -40 12 -2 5 -10
6 -18 3 -8 -3 -21 0 -29 7 -12 10 -15 10 -15 -1 0 -11 -2 -11 -10 1 -5 8 -10
11 -10 7 0 -5 -6 -5 -12 0 -7 4 -24 9 -38 9 -33 2 -32 1 -21 22 7 13 6 23 -1
30 -9 9 -9 12 0 12 7 0 10 12 8 30 -2 17 1 30 6 30 5 0 8 6 7 13 -6 33 46 107
75 107 9 0 16 5 16 11 0 5 4 8 10 4 26 -16 228 -23 320 -10 30 4 63 7 73 7 9
-1 17 4 17 10 0 6 3 8 7 5 3 -4 12 -2 20 4 9 9 13 8 13 0 0 -8 8 -6 23 4 13 8
27 12 30 8 4 -3 7 -2 7 3 0 5 20 16 45 23 25 7 43 17 40 22 -3 4 4 6 15 4 11
-2 18 0 15 6 -4 5 0 9 8 9 8 0 18 7 21 16 3 8 10 13 15 10 5 -3 11 1 15 9 3 8
11 15 17 15 14 0 107 93 132 133 10 15 19 27 20 27 2 0 3 -22 2 -50z m-6389
-722 c-4 7 -1 12 9 12 9 0 19 -9 22 -20 3 -11 10 -20 15 -20 5 0 6 -5 3 -10
-4 -6 -2 -16 3 -23 12 -14 24 -83 26 -146 1 -41 -1 -44 -39 -59 -22 -9 -41
-19 -43 -24 -2 -4 -12 -8 -23 -8 -10 0 -19 -5 -19 -12 0 -6 -3 -9 -6 -5 -4 3
-24 -3 -45 -13 -21 -11 -45 -20 -54 -20 -9 0 -13 -4 -10 -10 3 -5 -3 -10 -15
-10 -12 0 -18 -4 -15 -10 3 -6 -1 -7 -9 -4 -10 4 -16 1 -16 -7 0 -7 -3 -9 -7
-6 -3 4 -17 0 -30 -8 -14 -9 -23 -11 -23 -5 0 6 -5 8 -12 4 -6 -4 -8 -3 -4 4
7 12 -11 26 -34 27 -9 0 -14 7 -12 18 2 9 -2 17 -7 17 -5 0 -10 12 -11 28 -3
65 -5 82 -13 82 -5 0 -6 4 -2 9 3 5 1 13 -5 16 -8 5 -7 11 1 21 9 11 9 14 -1
14 -9 0 -9 4 1 17 10 11 10 14 2 9 -8 -4 -13 -2 -13 8 0 8 5 18 10 21 6 4 8
11 5 16 -7 10 35 30 90 43 11 2 22 5 25 6 3 1 8 2 13 1 4 0 7 5 7 12 0 8 4 7
10 -3 7 -12 10 -12 10 -1 0 7 6 11 14 8 7 -3 25 1 40 8 17 9 28 10 32 3 4 -7
9 -7 13 0 4 6 24 12 45 14 20 1 40 6 43 11 2 4 12 2 21 -5 12 -10 14 -10 8 0z
m9334 -3932 c0 -2 -8 -10 -17 -17 -16 -13 -17 -12 -4 4 13 16 21 21 21 13z"/>
<path d="M8580 16720 c0 -5 -7 -10 -15 -10 -13 0 -19 -12 -16 -32 0 -4 -6 -5
-14 -2 -9 4 -15 0 -15 -9 0 -9 -5 -19 -12 -23 -7 -5 -8 -3 -3 6 5 9 4 11 -3 6
-7 -4 -12 -14 -12 -22 0 -8 -4 -14 -8 -14 -4 0 -24 -25 -43 -55 -18 -30 -37
-55 -41 -55 -5 0 -8 -7 -8 -15 0 -8 -5 -15 -11 -15 -6 0 -9 -7 -5 -15 3 -8 0
-14 -6 -12 -7 1 -14 -7 -16 -18 -2 -11 -9 -24 -14 -30 -8 -7 -8 -5 -3 5 5 9 4
12 -1 7 -5 -5 -10 -12 -10 -15 -6 -27 -17 -51 -23 -47 -4 2 -8 -2 -9 -10 -1
-8 -3 -22 -4 -30 -1 -8 -5 -12 -10 -9 -4 3 -8 -2 -8 -10 0 -9 -5 -16 -11 -16
-6 0 -9 -6 -7 -12 3 -7 -1 -19 -9 -26 -7 -8 -11 -18 -8 -23 4 -5 1 -9 -4 -9
-6 0 -10 -3 -9 -7 1 -5 -3 -19 -9 -33 -6 -14 -11 -29 -11 -33 0 -4 -8 -20 -17
-34 -12 -17 -13 -23 -4 -17 11 6 12 5 2 -8 -7 -8 -10 -18 -6 -21 3 -4 1 -7 -5
-7 -6 0 -9 -7 -6 -15 4 -8 2 -15 -3 -15 -5 0 -8 -13 -5 -30 2 -16 0 -30 -5
-30 -11 0 -10 -121 1 -139 7 -10 5 -12 -3 -6 -10 6 -11 3 -2 -12 6 -11 7 -23
4 -27 -3 -3 -1 -6 6 -6 7 0 9 -4 6 -10 -3 -5 -1 -10 6 -10 7 0 10 -3 6 -6 -9
-9 25 -44 36 -37 6 4 8 -1 4 -10 -3 -10 -2 -17 3 -17 5 0 16 -7 24 -16 9 -8
16 -11 16 -4 0 6 10 1 22 -10 13 -12 24 -16 26 -11 5 15 42 -21 42 -40 0 -16
26 -34 43 -31 4 1 7 -2 7 -6 0 -5 6 -9 14 -9 15 0 16 14 2 35 -5 8 -4 18 3 25
10 10 23 13 80 20 14 2 26 8 29 15 2 7 8 10 12 7 19 -12 130 78 130 103 0 7 4
12 9 12 8 0 25 56 22 73 0 4 2 7 7 7 10 0 7 163 -3 180 -5 9 -4 11 3 6 7 -4
12 -2 12 3 0 6 -6 11 -12 11 -9 0 -8 4 2 10 10 6 11 10 3 10 -8 0 -11 11 -9
30 2 17 0 30 -5 30 -4 0 -8 8 -8 18 1 27 -7 67 -14 78 -3 6 -9 25 -12 42 -3
17 -9 41 -13 54 -5 13 -8 30 -7 38 0 8 -4 18 -10 22 -6 5 -5 8 4 8 11 0 11 3
0 17 -12 14 -12 15 -1 9 11 -7 12 -4 3 13 -9 16 -9 21 1 21 8 0 9 3 3 8 -15
11 -17 32 -2 32 9 0 8 3 -2 9 -9 6 -10 11 -2 15 7 5 8 13 2 24 -5 9 -8 34 -7
54 2 21 -1 35 -6 32 -5 -4 -8 2 -7 12 2 11 -5 36 -15 57 -18 37 -26 45 -26 27z"/>
</g>
</svg>
